# xmcd CD database file
#
# Track frame offsets:
#	150
#	18107
#	35467
#	56722
#	76555
#	93785
#	115965
#	131412
#	150687
#	163145
#	185897
#
# Disc length: 2561 seconds
#
# Revision: 0
# Processed by: cddbd v1.5.1PL0 Copyright (c) Steve Scherf et al.
# Submitted via: CDex 1.51
#
DISCID=8109ff0b
DTITLE=中西敏博 - Walkin' in Paris
DYEAR=1900
DGENRE=New Age
TTITLE0=At the corner
TTITLE1=Le Promenade
TTITLE2=Walkin' Tour
TTITLE3=ノスタルジア
TTITLE4=プルミエール
TTITLE5=On the shore
TTITLE6=Fun,fun, fun
TTITLE7=In the park
TTITLE8=魔法使いの夢
TTITLE9=Mon Chien −わが友よ−
TTITLE10=at the corner
EXTD=
EXTT0=
EXTT1=
EXTT2=
EXTT3=
EXTT4=
EXTT5=
EXTT6=
EXTT7=
EXTT8=
EXTT9=
EXTT10=
PLAYORDER=
